<mxfile host="app.diagrams.net" modified="2024-03-04T07:20:56.783Z" agent="Mozilla/5.0 (Windows NT 10.0; Win64; x64) AppleWebKit/537.36 (KHTML, like Gecko) Chrome/122.0.0.0 Safari/537.36" version="24.0.1" etag="3TGGQ-MgrFP0MwPlJQgQ" type="github">
  <diagram name="Page-1" id="dkPL84Y6aCF2ma3nyiCZ">
    <mxGraphModel>
      <root>
        <mxCell id="0" />
        <mxCell id="1" parent="0" />
      </root>
    </mxGraphModel>
  </diagram>
</mxfile>
